<svg width="100" height="100" viewBox="0 0 350 343" fill="none" xmlns="http://www.w3.org/2000/svg">
<path d="M188.209 280.225L140.86 234.433C139.466 233.744 137.92 233.417 136.366 233.483C134.812 233.548 133.3 234.004 131.968 234.809C130.645 235.58 129.546 236.683 128.781 238.009C128.015 239.336 127.61 240.839 127.604 242.37V269.933H109.375C86.8875 269.933 69.2708 252.316 69.2708 229.829V219.124C88.4443 211.778 102.083 193.25 102.083 171.495C102.083 149.741 88.4443 131.213 69.2708 123.866V113.632C69.2708 91.2578 87.4708 73.0578 109.845 73.0578C114.68 73.0578 119.317 71.1372 122.735 67.7186C126.154 64.3 128.074 59.6633 128.074 54.8286C128.074 49.994 126.154 45.3573 122.735 41.9387C119.317 38.52 114.68 36.5995 109.845 36.5995C67.3714 36.5995 32.8125 71.1583 32.8125 113.632V123.866C13.6391 131.213 0 149.744 0 171.495C0 193.246 13.6391 211.778 32.8125 219.124V229.829C32.8125 272.044 67.1562 306.391 109.375 306.391H127.604V333.961C127.604 337.038 129.248 339.922 131.965 341.522C133.3 342.319 134.812 342.77 136.365 342.836C137.918 342.901 139.463 342.579 140.86 341.898L188.209 296.106C191.023 293.481 193.229 291.527 193.229 288.162C193.229 284.808 191.348 282.981 188.209 280.225ZM58.3333 200.662H43.75V178.787H21.875V164.204H43.75V142.329H58.3333V164.204H80.2083V178.787H58.3333V200.662ZM317.187 123.866V113.632C317.187 71.1583 282.629 36.5995 240.155 36.5995H226.042V9.49635C226.042 6.41926 224.244 3.53541 221.528 1.93489C220.173 1.13718 218.642 0.68592 217.07 0.621056C215.499 0.556192 213.936 0.879725 212.519 1.56301L165.149 47.3547C162.334 49.9833 160.118 51.9375 160.118 55.3026C160.118 58.6568 161.995 60.4833 165.134 63.2396L212.483 109.031C215.297 110.453 218.834 110.271 221.528 108.656C224.244 107.048 226.042 104.179 226.042 101.091V73.0578H240.155C262.529 73.0578 280.729 91.2578 280.729 113.632V123.866C261.556 131.213 247.917 149.741 247.917 171.495C247.917 193.25 261.556 211.778 280.729 219.124V229.358C280.729 251.733 262.529 269.933 240.155 269.933C230.085 269.933 221.926 278.092 221.926 288.162C221.926 298.232 230.085 306.391 240.155 306.391C282.629 306.391 317.187 271.832 317.187 229.358V219.124C336.361 211.778 350 193.25 350 171.495C350 149.741 336.361 131.213 317.187 123.866ZM328.125 178.787H306.25V200.662H291.667V178.787H269.792V164.204H291.667V142.329H306.25V164.204H328.125V178.787Z" fill="url(#paint0_linear)"/>
<defs>
<linearGradient id="paint0_linear" x1="-5.50494" y1="2.62554" x2="311.703" y2="150.542" gradientUnits="userSpaceOnUse">
<stop stop-color="#E90DCA"/>
<stop offset="1" stop-color="#1536F1"/>
</linearGradient>
</defs>
</svg>
